<?xml version="1.0" encoding="UTF-8"?>
<svg version="1.1" viewBox="0 0 2048 796" width="602" height="234" xmlns="http://www.w3.org/2000/svg">
<path transform="translate(0)" d="m0 0h2048v796h-2048z" fill="#111010"/>
<path transform="translate(1376,38)" d="m0 0h19l23 2 23 4 24 8 16 8 15 10 12 11 9 9 12 17 9 17 5 13 6 21 4 24 1 15v397l-2 24-5 25-8 24-11 21-12 16-6 7-8 7-11 9-17 10-20 8-23 6-20 3-10 1h-28l-30-4-23-6-19-8-14-8-13-10-17-17-10-14-8-14-6-14-7-23-5-27-1-8-1-33v-52l1-326 6-36 5-16 8-20 9-16 10-13 12-13 14-11 15-9 18-8 21-6 27-4z" fill="#FDFAE5"/>
<path transform="translate(1628,48)" d="m0 0h136l3 3 15 59 17 66 13 51 10 39 13 50 16 64 7 26 13 52 1 7h2v-415l1-2h96l1 1 1 74v621l-1 1h-112l-3-8-10-38-21-82-13-49-12-47-9-35-8-30-12-46-11-44-7-26-18-70-8-29-1-3-1 507h-98l-1-1v-636z" fill="#FDFAE5"/>
<path transform="translate(803,38)" d="m0 0h16l22 2 19 3 23 7 17 8 12 8 11 9 10 10 10 13 9 16 8 18 5 16 5 27 1 11 1 56-1 1h-102l-1-1-1-40-2-20-5-17-7-11-8-7-11-5-7-2-17-1-16 2-14 7-8 7-5 7-5 14-3 24v13l3 21 6 20 4 9 8 14 8 11 13 16 15 16 14 14 8 7 11 10 8 7 10 9 15 14 22 22 7 8 11 13 12 16 12 19 13 27 6 19 6 28 3 26 1 22-2 24-4 28-6 22-8 20-9 16-9 12-9 10-10 9-13 9-19 10-21 7-19 4-23 3h-29l-30-4-19-5-16-6-15-8-14-10-13-12-13-17-9-16-7-16-6-21-4-22-2-30v-47l2-2h100l2 1 1 56 2 15 4 14 6 11 8 8 14 7 7 2 20 1 11-1 13-5 9-6 8-9 5-11 3-9 2-21v-12l-2-25-3-10-5-17-10-20-11-16-9-11-14-15-11-12-10-9-12-11-10-9-12-11-8-7-27-27-7-8-12-14-9-12-10-14-10-18-8-17-5-14-2-9-3-10-4-23-1-8v-46l5-30 6-21 6-16 9-16 10-14 19-19 18-12 19-9 23-7 27-4z" fill="#FDFAE5"/>
<path transform="translate(64,48)" d="m0 0h109l2 5 3 19 5 38 3 24 5 37 6 45 7 52 3 23 7 52 3 24 5 37 5 38 2 12 3 25 5 39 6 43 3 26 1 1 1-3 2-19 4-29 10-74 3-22 9-70 3-21 8-60 10-76 8-59 3-22 9-69 4-16h98l1 1-1 14-9 59-10 66-13 86-19 124-13 86-19 125-16 105-4 28-1 3h-146l-3-17-5-32-9-58-8-54-20-132-11-71-10-66-18-119-10-66-11-73z" fill="#FDFAE5"/>
<path transform="translate(1038,48)" d="m0 0h108l1 1v696h-111v-690z" fill="#FDFAE5"/>
<path transform="translate(475,48)" d="m0 0h106l2 1v696h-109l-1-15v-673l1-8z" fill="#FDFAE5"/>
<path transform="translate(1383,138)" d="m0 0 19 1 14 5 9 6 7 7 8 16 4 22v397l-4 26-5 13-6 8-9 8-13 6-12 2h-14l-13-2-12-5-9-7-7-9-5-11-4-20-1-9v-390l3-23 5-14 6-9 4-5 9-6 11-5z" fill="#111010"/>
<path transform="translate(2041)" d="m0 0h7v796h-7z"/>
<path transform="translate(1858,734)" d="m0 0 1 2 4 2 1 5-5 1-1-3z" fill="#FDFBF5"/>
<path transform="translate(1876,50)" d="m0 0h8l-3 5-5 3z" fill="#FDFCF9"/>
<path transform="translate(475,50)" d="m0 0h7l-4 6-3 3z" fill="#FDFCF9"/>
<path transform="translate(1628,735)" d="m0 0 2 4 2 3 4 2-8 1z" fill="#FDFBF8"/>
<path transform="translate(1629,50)" d="m0 0h6l-3 5-3 2z" fill="#FDFCF9"/>
</svg>
